<?xml version="1.0" standalone="no"?>
<!DOCTYPE svg PUBLIC "-//W3C//DTD SVG 20010904//EN"
 "http://www.w3.org/TR/2001/REC-SVG-20010904/DTD/svg10.dtd">
<svg version="1.0" xmlns="http://www.w3.org/2000/svg"
 width="300.000000pt" height="300.000000pt" viewBox="0 0 300.000000 300.000000"
 preserveAspectRatio="xMidYMid meet">
<metadata>
Created by potrace 1.10, written by Peter Selinger 2001-2011
</metadata>
<g transform="translate(0.000000,300.000000) scale(0.100000,-0.100000)"
fill="#000000" stroke="none">
<path d="M1424 2220 c-162 -24 -317 -131 -392 -268 l-29 -53 -428 1 c-409 1
-427 0 -414 -17 8 -10 29 -37 49 -60 l34 -43 364 0 c341 0 363 -1 360 -17 -3
-17 -24 -18 -260 -18 -226 0 -255 -2 -245 -15 7 -8 27 -34 47 -57 l34 -43 213
0 c211 0 213 0 213 -21 0 -21 -3 -22 -110 -17 l-109 6 46 -59 46 -59 77 0 77
0 39 -66 c173 -295 578 -354 831 -120 32 29 76 84 97 120 l39 66 76 0 77 0 34
43 c68 83 74 75 -50 69 -107 -5 -110 -4 -110 17 0 21 2 21 213 21 l213 0 34
43 c20 23 40 49 47 57 10 13 -19 15 -245 15 -236 0 -257 1 -260 18 -3 16 19
17 360 17 l364 0 34 43 c20 23 41 50 49 60 13 17 -5 18 -414 17 l-428 -1 -29
53 c-101 185 -335 300 -544 268z m239 -58 c114 -41 200 -111 274 -224 21 -31
48 -62 61 -67 15 -7 156 -11 392 -11 204 0 370 -3 370 -7 0 -5 -5 -15 -10 -23
-8 -13 -61 -15 -357 -18 -303 -2 -350 -5 -365 -19 -24 -22 -23 -49 4 -67 19
-13 58 -16 225 -16 206 0 228 -4 186 -36 -14 -10 -66 -13 -210 -14 -161 0
-194 -3 -207 -16 -21 -20 -20 -43 1 -66 12 -13 31 -18 75 -18 32 0 58 -3 58
-7 -1 -25 -24 -35 -93 -42 -86 -8 -102 -18 -135 -85 -29 -57 -133 -154 -203
-189 -63 -31 -165 -57 -229 -57 -168 0 -335 96 -429 245 -23 35 -50 69 -60 75
-11 5 -46 10 -77 10 -39 0 -63 5 -76 17 -29 26 -21 33 39 33 82 0 117 37 76
82 -14 16 -35 18 -206 18 -163 0 -193 2 -209 17 -10 9 -18 20 -18 25 0 4 91 8
203 8 167 0 206 3 225 16 26 18 28 41 5 66 -15 17 -39 18 -349 18 -336 0 -384
5 -384 37 0 11 68 13 376 13 226 0 383 4 394 10 10 5 36 38 58 72 62 97 121
152 210 197 106 54 270 64 385 23z"/>
<path d="M1385 2129 c-75 -25 -145 -68 -201 -124 -102 -101 -140 -204 -132
-356 5 -104 43 -190 119 -273 59 -65 162 -120 254 -137 220 -40 453 108 511
323 28 106 14 240 -35 336 -54 105 -176 200 -291 226 -77 18 -179 20 -225 5z
m186 -29 c270 -50 425 -341 311 -585 -41 -87 -118 -167 -201 -208 -62 -30 -71
-32 -181 -32 -110 0 -119 2 -181 32 -82 41 -160 121 -200 207 -94 200 -6 447
194 546 94 46 166 57 258 40z"/>
<path d="M1418 1680 c-3 -122 -2 -130 16 -130 18 0 19 7 13 106 -3 58 -2 102
2 97 4 -4 27 -52 52 -105 34 -76 48 -98 64 -98 19 0 20 7 20 130 0 121 -1 130
-19 130 -18 0 -19 -7 -13 -106 3 -58 2 -102 -2 -97 -4 4 -27 52 -51 105 -31
66 -50 97 -62 98 -15 0 -17 -15 -20 -130z"/>
<path d="M760 880 c0 -69 3 -90 14 -90 10 0 13 16 10 73 l-4 72 35 -72 c49
-103 65 -99 65 17 0 77 -2 90 -16 90 -15 0 -16 -9 -10 -70 3 -38 4 -70 2 -70
-3 0 -19 32 -37 70 -45 98 -59 93 -59 -20z"/>
<path d="M1360 963 c0 -24 56 -173 65 -173 6 0 23 37 38 83 31 94 32 100 15
95 -6 -2 -21 -37 -33 -76 l-21 -73 -22 76 c-12 41 -27 75 -32 75 -6 0 -10 -3
-10 -7z"/>
<path d="M932 908 c-17 -17 -15 -84 4 -102 19 -19 84 -22 84 -3 0 7 -14 12
-37 12 -28 0 -38 5 -41 18 -3 14 4 17 42 17 49 0 57 11 36 51 -12 22 -68 27
-88 7z m72 -23 c4 -12 -3 -15 -29 -15 -33 0 -43 8 -28 23 12 13 51 7 57 -8z"/>
<path d="M1053 898 c4 -13 9 -42 13 -65 8 -54 31 -57 40 -5 11 64 21 69 29 14
9 -71 30 -68 45 6 7 31 14 60 17 65 2 4 -3 7 -11 7 -11 0 -16 -10 -17 -27 0
-16 -4 -37 -8 -48 -7 -16 -10 -10 -16 28 -8 53 -31 64 -41 20 -3 -16 -9 -37
-14 -48 -8 -18 -9 -18 -9 5 -2 38 -12 70 -23 70 -6 0 -8 -10 -5 -22z"/>
<path d="M1530 910 c0 -5 9 -10 20 -10 17 0 20 -7 20 -45 0 -41 -2 -45 -25
-45 -14 0 -25 -4 -25 -10 0 -5 25 -10 55 -10 30 0 55 5 55 10 0 6 -9 10 -20
10 -18 0 -20 7 -20 55 0 54 0 55 -30 55 -16 0 -30 -4 -30 -10z"/>
<path d="M1687 913 c-18 -17 -5 -44 28 -60 19 -9 35 -23 35 -31 0 -10 -9 -13
-35 -10 -24 3 -35 0 -35 -9 0 -8 14 -13 40 -13 29 0 42 5 50 20 14 26 6 39
-36 56 -44 18 -43 34 1 34 19 0 35 5 35 10 0 11 -73 14 -83 3z"/>
<path d="M1835 910 c3 -5 13 -10 21 -10 10 0 14 -12 14 -45 0 -38 -3 -45 -20
-45 -11 0 -20 -4 -20 -10 0 -5 23 -10 50 -10 28 0 50 5 50 10 0 6 -9 10 -20
10 -18 0 -20 7 -20 55 0 55 0 55 -31 55 -17 0 -28 -4 -24 -10z"/>
<path d="M1980 901 c-37 -69 26 -141 85 -97 22 16 26 76 6 100 -19 23 -78 21
-91 -3z m75 -46 c0 -36 -3 -40 -24 -40 -30 0 -46 24 -37 59 5 22 11 27 34 24
24 -3 27 -7 27 -43z"/>
<path d="M2125 854 c0 -81 22 -90 27 -11 3 48 5 52 31 55 27 3 27 2 27 -52 0
-32 4 -56 10 -56 7 0 10 24 8 63 l-3 62 -50 2 -50 1 0 -64z"/>
<path d="M1230 860 c0 -5 18 -10 40 -10 22 0 40 5 40 10 0 6 -18 10 -40 10
-22 0 -40 -4 -40 -10z"/>
<path d="M326 587 c-27 -20 -17 -61 14 -64 25 -3 25 -3 3 7 -29 12 -30 38 -1
49 12 4 17 11 11 14 -5 4 -18 1 -27 -6z"/>
<path d="M556 585 c-3 -8 -3 -22 1 -31 3 -9 0 -20 -8 -25 -10 -6 -7 -9 12 -9
23 0 26 3 21 25 -2 14 -9 25 -14 25 -6 0 -5 7 2 15 7 9 8 15 2 15 -5 0 -12 -7
-16 -15z"/>
<path d="M866 585 c-3 -8 -3 -22 1 -31 3 -9 0 -20 -8 -25 -10 -6 -7 -9 13 -9
25 0 26 2 18 31 -5 18 -7 36 -4 40 3 5 1 9 -4 9 -6 0 -12 -7 -16 -15z"/>
<path d="M1176 584 c-28 -28 -12 -65 29 -63 19 0 19 1 -2 9 -30 12 -31 50 -2
50 11 0 17 5 14 10 -9 14 -21 12 -39 -6z"/>
<path d="M1430 585 c0 -8 -7 -15 -15 -15 -9 0 -15 -9 -15 -25 0 -20 5 -25 25
-25 23 0 25 4 25 40 0 22 -4 40 -10 40 -5 0 -10 -7 -10 -15z"/>
<path d="M1716 593 c-3 -3 -6 -22 -5 -42 0 -29 2 -32 9 -16 7 18 8 19 15 3 11
-27 20 -21 20 13 0 29 -25 56 -39 42z"/>
<path d="M1940 560 c0 -36 3 -40 25 -40 20 0 25 5 25 25 0 16 -6 25 -15 25 -8
0 -15 7 -15 15 0 8 -4 15 -10 15 -5 0 -10 -18 -10 -40z"/>
<path d="M477 577 c-7 -23 6 -57 22 -56 10 0 11 2 4 6 -15 6 -17 33 -3 33 15
0 12 17 -4 23 -8 3 -16 1 -19 -6z"/>
<path d="M788 580 c-8 -25 4 -60 21 -59 10 0 11 2 4 6 -15 6 -17 33 -3 33 6 0
10 5 10 11 0 5 -4 8 -9 5 -5 -4 -11 0 -13 6 -4 10 -6 9 -10 -2z"/>
<path d="M1561 576 c-9 -11 -10 -16 -2 -16 6 0 11 -9 11 -20 0 -13 6 -20 18
-19 10 0 12 3 5 6 -15 6 -17 33 -3 33 6 0 10 5 10 11 0 5 -4 8 -9 5 -5 -4 -11
-1 -13 5 -2 7 -9 5 -17 -5z"/>
<path d="M2651 576 c-9 -11 -10 -16 -2 -16 7 0 11 -8 9 -17 -2 -11 4 -18 17
-20 11 -1 14 0 8 3 -15 7 -17 34 -3 34 6 0 10 5 10 11 0 5 -4 8 -9 5 -5 -4
-11 -1 -13 5 -2 7 -9 5 -17 -5z"/>
<path d="M629 569 c-12 -8 -11 -12 4 -23 18 -14 18 -14 0 -19 -15 -4 -14 -5 4
-6 28 -1 40 17 17 26 -16 6 -16 7 1 13 15 5 16 8 3 12 -8 4 -21 2 -29 -3z"/>
<path d="M2101 553 c-1 -29 2 -33 24 -33 20 0 25 5 25 25 0 14 -4 25 -10 25
-5 0 -10 -9 -10 -20 0 -30 -18 -24 -23 8 -4 25 -4 25 -6 -5z"/>
<path d="M2198 572 c-19 -4 -26 -52 -7 -52 5 0 7 5 3 12 -4 6 1 17 11 24 21
16 18 22 -7 16z"/>
<path d="M384 555 c-4 -9 -2 -21 4 -27 16 -16 47 -5 47 17 0 26 -42 34 -51 10z"/>
<path d="M715 560 c17 -7 17 -9 3 -9 -28 -1 -22 -31 6 -31 19 0 22 4 18 25 -3
18 -11 25 -26 24 -20 0 -20 -1 -1 -9z"/>
<path d="M932 548 c2 -15 10 -23 23 -23 13 0 21 8 23 23 3 18 -1 22 -23 22
-22 0 -26 -4 -23 -22z"/>
<path d="M1011 543 c2 -23 2 -24 6 -5 5 27 23 29 23 2 0 -11 5 -20 11 -20 21
0 4 45 -18 48 -20 3 -23 -1 -22 -25z"/>
<path d="M1324 555 c-8 -21 4 -35 29 -34 21 0 21 1 2 9 -17 7 -17 9 -2 9 9 1
17 8 17 16 0 19 -39 20 -46 0z"/>
<path d="M1485 545 c0 -16 6 -25 16 -25 12 0 15 7 11 25 -2 14 -9 25 -16 25
-6 0 -11 -11 -11 -25z"/>
<path d="M1788 558 c-8 -22 3 -38 25 -37 21 0 21 1 3 8 -19 7 -19 8 3 14 13 3
20 10 16 16 -9 15 -42 14 -47 -1z"/>
<path d="M1861 543 l1 -28 8 25 c8 24 8 24 9 3 1 -13 6 -23 11 -23 6 0 10 10
11 23 1 21 1 21 9 -3 l8 -25 1 28 c1 24 -3 27 -29 27 -26 0 -30 -3 -29 -27z"/>
<path d="M2022 548 c2 -15 10 -23 23 -23 13 0 21 8 23 23 3 18 -1 22 -23 22
-22 0 -26 -4 -23 -22z"/>
<path d="M2260 560 c0 -6 8 -14 18 -17 14 -6 13 -8 -8 -14 l-25 -7 28 -1 c18
-1 27 4 27 14 0 8 -8 15 -17 16 -15 0 -15 2 2 9 19 8 19 9 -2 9 -13 1 -23 -4
-23 -9z"/>
<path d="M2332 548 c2 -16 11 -24 28 -25 23 -2 23 -2 5 6 -17 8 -18 10 -2 10
28 1 20 31 -9 31 -21 0 -25 -4 -22 -22z"/>
<path d="M2400 545 c0 -31 20 -33 21 -2 1 21 1 21 9 -3 l8 -25 2 25 2 25 8
-25 8 -25 1 28 c1 24 -3 27 -29 27 -25 0 -30 -4 -30 -25z"/>
<path d="M2488 558 c-8 -22 3 -38 25 -37 21 0 21 1 3 8 -19 7 -19 8 3 14 13 3
20 10 16 16 -9 15 -42 14 -47 -1z"/>
<path d="M2568 545 c-3 -14 -1 -25 3 -25 5 0 9 9 9 20 0 11 5 20 10 20 6 0 10
-9 10 -20 0 -11 5 -20 10 -20 6 0 10 4 10 9 0 44 -45 57 -52 16z"/>
</g>
</svg>
