<svg xmlns="http://www.w3.org/2000/svg" xmlns:xlink="http://www.w3.org/1999/xlink" version="1.1" x="0px" y="0px" viewBox="0 0 512 640" enable-background="new 0 0 512 512" xml:space="preserve"><g><g><path d="M256,264c-57.346,0-104-46.654-104-104S198.654,56,256,56s104,46.654,104,104S313.346,264,256,264z M256,72    c-48.523,0-88,39.477-88,88s39.477,88,88,88s88-39.477,88-88S304.523,72,256,72z"/></g></g><g><g><path d="M456,456H56v-8c0-15.211,0-46.865,14.514-78.597c18.038-39.439,52.252-66.204,101.689-79.549l3.268-0.882l2.909,1.731    C201.787,304.636,228.627,312,256,312c27.371,0,54.212-7.364,77.619-21.296l2.909-1.731l3.268,0.882    c49.438,13.345,83.652,40.109,101.69,79.548C456,401.135,456,432.788,456,448V456z M72.056,440h367.889    c-0.289-15.582-2.067-40.021-13.008-63.942c-15.582-34.067-45.22-57.562-88.122-69.868C313.649,320.469,285.093,328,256,328    c-29.095,0-57.65-7.531-82.815-21.811c-42.902,12.307-72.539,35.801-88.121,69.869C74.122,399.98,72.345,424.418,72.056,440z"/></g></g><text x="0" y="527" fill="#000000" font-size="5px" font-weight="bold" font-family="'Helvetica Neue', Helvetica, Arial-Unicode, Arial, Sans-serif">Created by Richard Schumann</text><text x="0" y="532" fill="#000000" font-size="5px" font-weight="bold" font-family="'Helvetica Neue', Helvetica, Arial-Unicode, Arial, Sans-serif">from the Noun Project</text></svg>